<?xml version="1.0" encoding="iso-8859-1"?>
<!-- Uploaded to: SVG Repo, www.svgrepo.com, Generator: SVG Repo Mixer Tools -->
<svg height="800px" width="800px" version="1.1" id="Capa_1" xmlns="http://www.w3.org/2000/svg" xmlns:xlink="http://www.w3.org/1999/xlink" 
	 viewBox="0 0 20.077 20.077" xml:space="preserve">
<g>
	<g>
		<path style="fill:#030104;" d="M4.83,16.242c-0.083,0.175,0.232,0.316,0.363,0.319c0.077,0,3.443,0,4.856,0
			c1.414,0,4.78,0,4.858,0c0.13-0.003,0.444-0.145,0.363-0.319c-0.095-0.221-0.441-0.268-0.566-0.268c-0.091,0-2.827,0-4.24,0
			c0,0-0.335,0-0.829,0c-1.415,0-4.149,0-4.242,0C5.271,15.975,4.925,16.021,4.83,16.242z"/>
		<path style="fill:#030104;" d="M16.057,19.536c-0.114-0.176-0.501-0.37-0.501-0.37H4.522c0,0-0.387,0.172-0.518,0.357
			c-0.13,0.186-0.132,0.554-0.132,0.554h12.334C16.206,20.077,16.17,19.711,16.057,19.536z"/>
		<polygon style="fill:#030104;" points="14.911,16.694 5.308,16.694 4.61,19.027 15.467,19.027 		"/>
		<path style="fill:#030104;" d="M7.381,8.737h5.14l-0.15-1.808c0,0,3.235-3.551,2.93-3.736c-0.328-0.197-1.606,0.146-2.115,0.146
			c-0.284,0-0.728,0-1.013,0c0,0,0-0.185,0-0.255c0-0.163-0.229-0.295-0.512-0.295c-0.23,0-0.96,0-1.697,0c-0.722,0-1.451,0-1.725,0
			c-0.283,0-0.511,0.132-0.511,0.295c0,0.07,0,0.255,0,0.255c-0.287,0-0.728,0-1.014,0c-0.494,0-1.76-0.35-2.083-0.163
			s2.924,3.797,2.924,3.797L7.381,8.737z"/>
		<path style="fill:#030104;" d="M14.229,9.352c0-0.172-0.18-0.312-0.402-0.312H5.7c-0.221,0-0.4,0.14-0.4,0.312
			c0,0.171,0.179,0.312,0.4,0.312h1.427c-0.298,2.715-0.501,4.426-1.653,5.92h9.128c-1.152-1.494-1.511-3.205-1.826-5.92h1.052
			C14.05,9.664,14.229,9.523,14.229,9.352z"/>
		<circle style="fill:#030104;" cx="9.964" cy="1.546" r="1.546"/>
	</g>
</g>
</svg>